HIERARCHY
ROOT root
{
	OFFSET	0	13.1	24.9
	CHANNELS 6  Xposition Yposition Zposition Xrotation Yrotation Zrotation
	JOINT spine_1
	{
		OFFSET	0	9.99999	0
		CHANNELS 3  Xrotation Yrotation Zrotation
		JOINT spine_2
		{
			OFFSET	0	112	-10
			CHANNELS 3  Xrotation Yrotation Zrotation
			JOINT spine_3
			{
				OFFSET	0	206.5	19.3
				CHANNELS 3  Xrotation Yrotation Zrotation
				JOINT spine_4
				{
					OFFSET	0	110.4	14.6
					CHANNELS 3  Xrotation Yrotation Zrotation
					JOINT neck_1
					{
						OFFSET	0	71.8	-50.3
						CHANNELS 3  Xrotation Yrotation Zrotation
						JOINT neck_2
						{
							OFFSET	0	86.2	-25.8
							CHANNELS 3  Xrotation Yrotation Zrotation
							JOINT head_ee
							{
								OFFSET	0	179.8	-8.7
								CHANNELS 3  Xrotation Yrotation Zrotation
								End Site
								{
									OFFSET	1	0	0
								}
							}
						}
					}
					JOINT left_clavicle
					{
						OFFSET	-43.2	22.4	-70.8
						CHANNELS 3  Xrotation Yrotation Zrotation
						JOINT left_shoulder
						{
							OFFSET	-93.9	-5.79999	48.7
							CHANNELS 3  Xrotation Yrotation Zrotation
							JOINT left_elbow
							{
								OFFSET	-291.4	-30.8	15.2
								CHANNELS 3  Xrotation Yrotation Zrotation
								JOINT left_lowarm_twist
								{
									OFFSET	-110.7	-3.89999	13.6
									CHANNELS 3  Xrotation Yrotation Zrotation
									JOINT left_hand
									{
										OFFSET	-110.7	-3.89999	13.6
										CHANNELS 3  Xrotation Yrotation Zrotation
										JOINT left_ee
										{
											OFFSET	-80.8	-5.10001	12.1
											CHANNELS 3  Xrotation Yrotation Zrotation
											End Site
											{
												OFFSET	1	0	0
											}
										}
									}
								}
							}
						}
					}
					JOINT right_clavicle
					{
						OFFSET	43.2	22.4	-70.8
						CHANNELS 3  Xrotation Yrotation Zrotation
						JOINT right_shoulder
						{
							OFFSET	93.9	-5.79999	48.7
							CHANNELS 3  Xrotation Yrotation Zrotation
							JOINT right_elbow
							{
								OFFSET	291.4	-30.8	15.2
								CHANNELS 3  Xrotation Yrotation Zrotation
								JOINT right_lowarm_twist
								{
									OFFSET	110.7	-3.89999	13.6
									CHANNELS 3  Xrotation Yrotation Zrotation
									JOINT right_hand
									{
										OFFSET	110.7	-3.89999	13.6
										CHANNELS 3  Xrotation Yrotation Zrotation
										JOINT right_ee
										{
											OFFSET	80.8	-5.10001	12.1
											CHANNELS 3  Xrotation Yrotation Zrotation
											End Site
											{
												OFFSET	1	0	0
											}
										}
									}
								}
							}
						}
					}
				}
			}
		}
	}
	JOINT left_hip
	{
		OFFSET	-82.8	-127.5	0.300001
		CHANNELS 3  Xrotation Yrotation Zrotation
		JOINT left_knee
		{
			OFFSET	-28.2	-396.7	2.2
			CHANNELS 3  Xrotation Yrotation Zrotation
			JOINT left_ankle
			{
				OFFSET	-11.7	-411.3	35.4
				CHANNELS 3  Xrotation Yrotation Zrotation
				JOINT left_toes
				{
					OFFSET	0	-60	-88.6
					CHANNELS 3  Xrotation Yrotation Zrotation
					JOINT left_foot_ee
					{
						OFFSET	-22.5	-16.5	-42.2
						CHANNELS 3  Xrotation Yrotation Zrotation
						End Site
						{
							OFFSET	1	0	0
						}
					}
				}
			}
		}
	}
	JOINT right_hip
	{
		OFFSET	82.8	-127.5	0.300001
		CHANNELS 3  Xrotation Yrotation Zrotation
		JOINT right_knee
		{
			OFFSET	28.2	-396.7	2.2
			CHANNELS 3  Xrotation Yrotation Zrotation
			JOINT right_ankle
			{
				OFFSET	11.7	-411.3	35.4
				CHANNELS 3  Xrotation Yrotation Zrotation
				JOINT right_toes
				{
					OFFSET	0	-60	-88.6
					CHANNELS 3  Xrotation Yrotation Zrotation
					JOINT right_foot_ee
					{
						OFFSET	22.5	-16.5	-42.2
						CHANNELS 3  Xrotation Yrotation Zrotation
						End Site
						{
							OFFSET	1	0	0
						}
					}
				}
			}
		}
	}
}
MOTION
Frames: 15
Frame Time: 0.02
2227.83 732.895 -1520.91 -0.379357 59.9298 -3.38652 -1.14164 0.237677 2.98143 -1.13669 0.0475654 2.9905 -1.13051 -0.640332 2.92159 -1.14238 -0.171101 2.98598 -1.48613 14.0564 -1.07446 -1.0475 26.1981 0.540967 -0.0 0.0 -0.0 -3.00484 17.1315 -2.64861 9.27363 -11.6958 65.4067 1.65187 -39.2899 0.589699 -60.609 -5.35859 5.11974 -0.386514 9.25385 1.35108 -0.0 0.0 -0.0 12.5649 24.2189 -24.8688 -14.1133 18.7773 -62.1763 0.193342 5.47101 -0.0092378 -4.60037 0.184629 -0.558156 -1.18565 9.4202 12.0935 0.0 0.0 0.0 0.294661 13.8764 4.07178 -3.9188 0.141396 0.584678 38.1978 27.3833 -5.07104 -34.3059 0.0 0.0 -0.0 0.0 -0.0 2.64234 26.9506 -1.22315 -3.52638 -0.129044 -0.525719 38.5003 -14.1341 4.78381 -34.9416 0.0 0.0 0.0 0.0 0.0 
2221.55 734.703 -1520.31 -1.0694 60.4804 -2.68373 -1.0655 0.296577 2.9406 -1.06069 0.108941 2.95349 -1.05145 -0.568005 2.90045 -1.06318 -0.103013 2.95371 -2.83515 13.9292 -0.857116 -2.50869 25.9938 1.04889 -0.0 0.0 -0.0 -3.12838 17.7097 -2.72643 9.50502 -12.3093 65.0246 1.77322 -41.2923 0.668183 -60.4447 -5.3381 5.11481 -0.652561 8.75349 -0.574599 -0.0 0.0 -0.0 12.3479 22.6094 -24.5239 -15.4984 18.0193 -61.2828 0.195966 5.54479 -0.00948972 -4.32878 0.172487 -0.525624 -1.08134 8.89802 11.1487 0.0 0.0 0.0 -0.260542 13.806 4.34828 -3.04476 0.113334 0.453475 39.6882 25.7074 -5.16123 -34.5819 0.0 0.0 -0.0 0.0 -0.0 2.03615 28.1162 -0.457867 -2.40769 -0.0916194 -0.358114 37.7158 -12.8379 4.69534 -35.318 0.0 0.0 0.0 0.0 0.0 
2215.39 735.921 -1522.78 -0.96622 60.2588 -3.08651 -1.0114 0.246109 3.05494 -1.00621 0.0513097 3.0644 -0.999747 -0.646838 2.99586 -1.01223 -0.165812 3.06035 -2.53596 13.8634 -0.862115 -2.19146 25.8351 0.970179 -0.0 0.0 -0.0 -3.15646 17.8266 -2.74642 10.0142 -12.017 64.7459 1.84471 -42.4174 0.715893 -60.3149 -5.32194 5.11088 -0.857362 8.83464 -1.85986 -0.0 0.0 -0.0 12.4549 21.9104 -24.832 -16.4936 17.6012 -61.6307 0.195087 5.52008 -0.00940493 -4.56918 0.183227 -0.554423 -1.10633 8.64528 11.2111 0.0 0.0 0.0 -0.97295 13.5921 4.86761 -3.04988 0.113504 0.454242 37.7025 26.3464 -4.98477 -34.8989 0.0 0.0 -0.0 0.0 -0.0 1.30839 29.1014 -0.421446 -1.77354 -0.0689513 -0.263432 38.4546 -11.6819 4.75203 -34.6592 0.0 0.0 0.0 0.0 0.0 
2210.27 733.549 -1522.41 -1.84324 59.7617 -2.37048 -0.735794 0.319391 3.07564 -0.730541 0.123128 3.08971 -0.720363 -0.56774 3.03964 -0.733247 -0.0807995 3.0911 -2.59459 13.6116 -1.21438 -2.25243 25.658 0.579282 -0.0 0.0 -0.0 -3.061 17.7638 -2.61179 10.0591 -12.0954 64.6199 1.86412 -42.7161 0.729021 -60.1726 -5.30423 5.10652 -0.985044 8.84079 -2.68065 -0.0 0.0 -0.0 12.4704 21.0632 -24.9373 -17.8317 17.0233 -61.4726 0.193017 5.46186 -0.00920688 -4.57381 0.183436 -0.554977 -1.08659 8.34147 10.9435 0.0 0.0 0.0 -1.11736 13.696 5.18824 -2.57902 0.0975636 0.383737 37.7346 26.1252 -4.98072 -35.0587 0.0 0.0 -0.0 0.0 -0.0 0.831367 29.7979 0.261871 -1.33839 -0.0527904 -0.198606 38.7598 -10.8904 4.77282 -34.5791 0.0 0.0 0.0 0.0 0.0 
2205.3 733.826 -1523.16 -2.03699 59.7123 -2.5195 -0.507827 0.334539 3.26064 -0.501922 0.126491 3.2753 -0.491072 -0.592933 3.22372 -0.505565 -0.076651 3.27684 -3.12091 13.4885 -1.47416 -2.81104 25.7029 0.404697 -0.0 0.0 -0.0 -2.66719 17.0696 -2.13432 11.371 -12.3241 63.6925 1.79998 -41.7182 0.685923 -59.6014 -5.23322 5.0886 -1.10253 9.17182 -3.29115 -0.0 0.0 -0.0 12.3134 20.5456 -24.615 -19.0063 16.7913 -62.0259 0.204854 5.79461 -0.0103678 -4.7029 0.189253 -0.570422 -1.0099 8.5886 10.5238 0.0 0.0 0.0 -1.87787 13.7345 5.68299 -1.88087 0.0728617 0.279439 38.7181 25.8362 -5.0701 -34.9535 0.0 0.0 -0.0 0.0 -0.0 0.457977 29.2535 0.863154 -0.948667 -0.0378978 -0.140651 36.8897 -11.444 4.60408 -34.803 0.0 0.0 0.0 0.0 0.0 
2202.13 733.232 -1524.08 -2.27301 60.1424 -2.41214 -0.365759 0.383639 3.17338 -0.360175 0.181036 3.19133 -0.346769 -0.51328 3.15502 -0.360658 -0.00882647 3.19645 -4.23788 13.0983 -1.73606 -4.01292 25.3201 0.321441 -0.0 0.0 -0.0 -2.78334 17.1067 -2.30828 11.5685 -12.5458 63.9397 1.83337 -42.2415 0.708252 -59.4365 -5.21276 5.08329 -1.1501 8.93844 -3.70232 -0.0 0.0 -0.0 12.2555 20.278 -24.5014 -19.8094 16.2564 -62.0749 0.198171 5.60678 -0.00970396 -4.52818 0.181387 -0.549514 -0.974146 8.15011 10.0885 0.0 0.0 0.0 -2.08848 13.9246 6.02837 -1.29323 0.0510844 0.191885 38.7532 25.6499 -5.06744 -35.19 0.0 0.0 -0.0 0.0 -0.0 -0.022936 29.4651 1.24953 -1.40836 -0.0554222 -0.209022 37.2548 -10.7681 4.63302 -34.8562 0.0 0.0 0.0 0.0 0.0 
2198.26 735.153 -1523.09 -2.46643 60.9275 -2.29131 -0.200335 0.392028 3.22336 -0.194575 0.186233 3.24175 -0.180858 -0.509824 3.20686 -0.195208 0.00276039 3.24709 -4.99693 12.7783 -2.16249 -4.82115 25.129 -0.00117148 -0.0 0.0 -0.0 -2.62148 17.2686 -2.02643 11.8028 -12.5652 64.0586 1.82871 -42.1689 0.70512 -59.2189 -5.18577 5.0762 -1.20804 8.90883 -4.08974 -0.0 0.0 -0.0 12.2528 19.968 -24.5174 -19.8238 15.9044 -62.2787 0.198151 5.60624 -0.00970202 -4.36562 0.174126 -0.530041 -0.938494 7.98188 9.77133 0.0 0.0 0.0 -2.4772 13.9979 6.54378 -0.518573 0.0210055 0.0768083 39.2387 25.5003 -5.11041 -35.1708 0.0 0.0 -0.0 0.0 -0.0 -0.387994 29.246 1.45721 -1.53906 -0.0603041 -0.228485 36.8672 -11.0901 4.59903 -35.0135 0.0 0.0 0.0 0.0 0.0 
2193.7 732.9 -1525.15 -2.62981 60.4025 -2.32814 -0.0507628 0.459323 3.23446 -0.0449786 0.252686 3.2571 -0.0275375 -0.43941 3.23723 -0.0421517 0.0770815 3.26597 -5.73787 12.5049 -2.28304 -5.61656 24.7807 -0.00733131 -0.0 0.0 -0.0 -2.74231 17.1585 -2.23465 12.1159 -12.7185 63.5839 1.82509 -42.1126 0.702695 -58.4806 -5.09442 5.05137 -1.2507 8.94778 -4.34772 -0.0 0.0 -0.0 12.3939 19.6769 -24.863 -21.0087 15.3865 -62.2185 0.194931 5.5157 -0.00939001 -4.59004 0.184164 -0.556919 -0.897265 8.14578 9.55996 0.0 0.0 0.0 -2.90262 13.929 6.66332 0.0793445 -0.0032751 -0.0117356 39.3516 25.8919 -5.13456 -35.237 0.0 0.0 -0.0 0.0 -0.0 -0.390229 28.5964 1.43361 -1.71845 -0.0669326 -0.255219 38.9019 -10.5202 4.78268 -34.8558 0.0 0.0 0.0 0.0 0.0 
2188.02 733.191 -1526.94 -2.81039 60.4301 -2.3026 0.0358139 0.500707 3.30663 0.0418496 0.289403 3.33175 0.0618003 -0.414034 3.31858 0.0464522 0.114966 3.3423 -6.69162 12.4798 -2.47154 -6.63427 24.9487 0.0125064 -0.0 0.0 -0.0 -2.75162 17.5453 -2.17637 11.711 -12.9052 63.5071 1.86059 -42.6619 0.726626 -58.2182 -5.06203 5.04226 -1.27423 8.82276 -4.55644 -0.0 0.0 -0.0 12.3669 19.648 -24.8028 -20.7108 15.4389 -62.3042 0.204803 5.79318 -0.0103626 -4.77052 0.192315 -0.578507 -0.886396 7.92142 9.3885 0.0 0.0 0.0 -3.1175 14.0024 6.88453 -0.406474 0.0165238 0.0601891 39.4268 25.6786 -5.13476 -35.1961 0.0 0.0 -0.0 0.0 -0.0 -0.553745 28.6134 1.7507 -2.06035 -0.0793331 -0.306224 38.2825 -10.3568 4.72513 -35.1979 0.0 0.0 0.0 0.0 0.0 
2187.31 734.379 -1529.21 -2.84183 60.5739 -2.48002 0.130676 0.550668 3.36367 0.136907 0.335639 3.39185 0.159908 -0.375529 3.38767 0.143933 0.163883 3.40446 -7.30039 12.4635 -2.13573 -7.29401 24.7256 0.484413 -0.0 0.0 -0.0 -2.78415 17.4736 -2.24021 11.0284 -13.9823 63.5075 1.88652 -43.0572 0.744266 -57.9627 -5.03053 5.03325 -1.27018 8.51011 -4.67184 -0.0 0.0 -0.0 12.4356 19.5784 -24.966 -20.8924 15.4184 -62.4527 0.225615 6.37723 -0.0125688 -4.86329 0.196531 -0.589594 -0.796773 8.11154 8.85791 0.0 0.0 0.0 -3.38564 13.9563 7.05044 0.297713 -0.0123736 -0.0440107 38.4091 26.0177 -5.04527 -35.6805 0.0 0.0 -0.0 0.0 -0.0 -0.409751 27.9133 1.7289 -2.70547 -0.101901 -0.402659 38.3054 -10.3039 4.72683 -35.4557 0.0 0.0 0.0 0.0 0.0 
2180.85 734.325 -1531.75 -3.58505 60.5083 -1.86107 0.309819 0.606547 3.41323 0.316216 0.388257 3.44486 0.342535 -0.323967 3.45149 0.325984 0.224862 3.45935 -6.67657 12.2375 -2.71595 -6.61327 24.6731 -0.28662 -0.0 0.0 -0.0 -2.84876 17.9355 -2.25197 10.9222 -13.1388 63.6571 1.89986 -43.2585 0.753388 -57.5469 -4.97934 5.01828 -1.25438 7.80089 -4.89025 -0.0 0.0 -0.0 12.6807 19.7282 -25.5228 -20.1331 15.7829 -62.9004 0.199784 5.65213 -0.00986219 -4.8955 0.197999 -0.593442 -0.747054 7.89442 8.42469 0.0 0.0 0.0 -3.52138 13.9912 7.16423 0.296402 -0.0123187 -0.043817 38.4842 25.7123 -5.04272 -36.4082 0.0 0.0 -0.0 0.0 -0.0 -0.719337 28.4882 1.93394 -2.73676 -0.102968 -0.407342 39.2215 -9.87726 4.80661 -35.1579 0.0 0.0 0.0 0.0 0.0 
2176.1 732.8 -1536.18 -3.61521 61.0789 -2.03631 0.426197 0.658681 3.56871 0.433178 0.430412 3.60333 0.463304 -0.307424 3.61588 0.445162 0.26711 3.61908 -6.64975 12.2294 -2.77489 -6.58308 24.6986 -0.353768 -0.0 0.0 -0.0 -2.84966 17.7826 -2.28257 10.7985 -13.672 63.9827 1.84271 -42.3864 0.714541 -57.3746 -4.95817 5.01197 -1.26605 7.88192 -4.92951 -0.0 0.0 -0.0 12.8882 19.7139 -26.0055 -19.8316 15.7232 -63.2532 0.202651 5.73271 -0.0101465 -4.96275 0.201071 -0.601473 -0.743751 7.77966 8.35262 0.0 0.0 0.0 -3.90564 13.9793 7.22254 0.571501 -0.0239547 -0.0844286 38.9541 25.599 -5.08565 -36.1463 0.0 0.0 -0.0 0.0 -0.0 -0.862784 28.1555 2.05102 -3.09675 -0.115059 -0.461267 39.8976 -9.83861 4.8663 -35.0298 0.0 0.0 0.0 0.0 0.0 
2159.24 731.562 -1545.69 0.160045 60.8746 -6.38433 0.154863 0.699401 3.68353 0.162291 0.463757 3.7205 0.196263 -0.315878 3.73594 0.176898 0.277683 3.73897 -6.88421 12.4177 -1.9027 -6.85266 24.4408 0.614836 -0.0 0.0 -0.0 -3.02815 17.9141 -2.53166 8.82509 -13.6668 63.9195 1.83651 -42.2903 0.710365 -56.0399 -4.79477 4.96093 -1.08497 6.74443 -4.26039 -0.0 0.0 -0.0 12.8576 19.8297 -25.9262 -20.0598 15.8916 -64.4787 0.201429 5.69836 -0.0100248 -4.98677 0.20217 -0.604341 -0.522148 8.5138 7.15877 0.0 0.0 0.0 -4.69081 13.9418 7.25606 -6.10651 0.202825 0.91478 39.2589 25.516 -5.11291 -36.2187 0.0 0.0 -0.0 0.0 -0.0 -2.1583 29.0855 2.96642 -7.63823 -0.238309 -1.14715 41.0088 -8.76098 4.9555 -34.4431 0.0 0.0 0.0 0.0 0.0 
2152.85 727.282 -1544.33 1.04791 60.753 -7.27262 0.023831 0.904576 3.74097 0.0313699 0.664872 3.79085 0.0799435 -0.141061 3.84605 0.0596108 0.467668 3.82015 -6.85759 12.4418 -2.25693 -6.81712 24.7371 0.258251 -0.0 0.0 -0.0 -3.39772 18.2237 -3.03636 8.08082 -14.6989 64.3378 1.83777 -42.3099 0.711214 -54.9445 -4.66157 4.91619 -1.098 5.53971 -4.88348 -0.0 0.0 -0.0 12.5403 19.8854 -25.1868 -18.6544 16.5056 -65.3094 0.300953 8.47958 -0.0223108 -5.23178 0.213454 -0.633565 -0.38727 8.58355 6.27178 0.0 0.0 0.0 -3.8488 13.8746 6.70303 -9.7015 0.276259 1.46147 41.6257 22.2884 -5.23664 -36.4445 0.0 0.0 -0.0 0.0 -0.0 -1.36416 26.8674 2.60494 -11.2147 -0.296883 -1.69273 41.8293 -7.02508 5.01639 -31.7652 0.0 0.0 0.0 0.0 0.0 
2143.3 721.613 -1548.7 2.95351 62.2936 -9.5341 -0.0282602 0.77041 3.86733 -0.0200932 0.522953 3.90843 0.0203178 -0.308858 3.93111 -0.00110366 0.315371 3.93059 -7.64189 12.4994 -2.24869 -7.65851 24.898 0.457403 -0.0 0.0 -0.0 -3.56623 18.7224 -3.18899 6.63467 -16.0825 64.6385 1.86126 -42.6722 0.727081 -54.0784 -4.55686 4.87902 -1.01688 4.44178 -4.83767 -0.0 0.0 -0.0 12.3179 19.9945 -24.6655 -17.3601 16.7932 -66.542 0.287121 8.09513 -0.020317 -5.12406 0.208478 -0.620723 -0.204552 8.74471 5.10104 0.0 0.0 0.0 -3.98608 14.029 6.09741 -12.9688 0.313139 1.96138 42.1101 20.9499 -5.24321 -36.8049 0.0 0.0 -0.0 0.0 -0.0 -1.32857 25.9972 3.06473 -15.3582 -0.322037 -2.32784 42.4065 -3.72455 5.06031 -29.2163 0.0 0.0 0.0 0.0 0.0 
